<svg xmlns="http://www.w3.org/2000/svg" width="177" height="177" viewBox="0 0 177 177">
  <g id="Group_1400" data-name="Group 1400" transform="translate(-345 -177)">
    <g id="Group_24" data-name="Group 24" transform="translate(345 177)">
      <circle id="Ellipse_1" data-name="Ellipse 1" cx="88.5" cy="88.5" r="88.5" fill="#fff"/>
    </g>
    <g id="diet" transform="translate(401.303 222.499)">
      <path id="Path_40" data-name="Path 40" d="M95.3,71.13h1.429a1.428,1.428,0,0,0,0-2.857H95.3a1.428,1.428,0,0,0,0,2.857Zm0,0" transform="translate(-78.16 -56.846)" fill="#f9925a"/>
      <path id="Path_41" data-name="Path 41" d="M137.963,71.13h18.568a1.428,1.428,0,0,0,0-2.857H137.963a1.428,1.428,0,1,0,0,2.857Zm0,0" transform="translate(-113.683 -56.846)" fill="#f9925a"/>
      <path id="Path_42" data-name="Path 42" d="M72.737,45.706H69.6a6.67,6.67,0,0,0-1.918.286,1.319,1.319,0,0,0-.143.041,6.616,6.616,0,0,0-2.074,1.173c.31-3.285,1.937-8.056,8.11-11.7a1.428,1.428,0,0,0-1.451-2.46,18.812,18.812,0,0,0-8.461,9.481c-.076-.247-.157-.488-.246-.714a11.94,11.94,0,0,0-3.428-4.856v-24.1a4.285,4.285,0,0,0-4.284-4.285H49.732a4.286,4.286,0,0,0-4.022-2.857H38.058a8.541,8.541,0,0,0-16.119,0H14.287a4.285,4.285,0,0,0-4.022,2.857H4.289A4.285,4.285,0,0,0,0,12.856V81.413A4.285,4.285,0,0,0,4.289,85.7H55.707a4.181,4.181,0,0,0,1.92-.464,17.544,17.544,0,0,0,3.98.464h5.339c10.341,0,18.755-8.968,18.755-20V59.518c0-7.612-5.816-13.811-12.965-13.811ZM60.749,42.835a19.184,19.184,0,0,1,.8,3.442c-.143-.061-.27-.143-.414-.19a6.484,6.484,0,0,0-2.191-.381H55.817c-.392,0-.777.027-1.16.063-.035-.01-.061-.033-.1-.04-4.727-.947-4.662-6.462-4.483-8.436a23.208,23.208,0,0,1,2.745-.153h.03a8.427,8.427,0,0,1,7.9,5.7ZM46.238,77.129H8.574V17.14h1.691A4.284,4.284,0,0,0,14.287,20H45.709a4.285,4.285,0,0,0,4.022-2.857h1.691V34.3c-3.689.131-3.933,1.159-4.065,1.746-.5,2.938-.247,8.141,3.153,10.888a13.879,13.879,0,0,0-7.658,12.583V65.7a20.778,20.778,0,0,0,3.385,11.427Zm10.9-64.273V35.207a11.428,11.428,0,0,0-2.857-.783V17.14a2.856,2.856,0,0,0-2.857-2.857H49.994V11.427h5.713a1.428,1.428,0,0,1,1.428,1.429ZM14.287,8.571H23a1.174,1.174,0,0,0,.143-.03,1.377,1.377,0,0,0,.263-.053,1.346,1.346,0,0,0,.262-.109,1.373,1.373,0,0,0,.56-.56,1.276,1.276,0,0,0,.11-.262,1.192,1.192,0,0,0,.057-.133,5.713,5.713,0,0,1,11.195,0,1.435,1.435,0,0,0,.06.152,1.652,1.652,0,0,0,.08.2,1.375,1.375,0,0,0,.174.258,1.347,1.347,0,0,0,.134.152,1.413,1.413,0,0,0,.277.187A1.118,1.118,0,0,0,37,8.571h8.713A1.428,1.428,0,0,1,47.138,10v5.713a1.428,1.428,0,0,1-1.429,1.428H14.287a1.428,1.428,0,0,1-1.428-1.428V10a1.428,1.428,0,0,1,1.428-1.429Zm-10,74.271a1.428,1.428,0,0,1-1.429-1.429V12.856a1.428,1.428,0,0,1,1.429-1.429H10v2.857H8.574A2.856,2.856,0,0,0,5.717,17.14V77.129a2.856,2.856,0,0,0,2.857,2.857H48.506a19.106,19.106,0,0,0,3.488,2.857ZM82.845,65.7c0,9.45-7.133,17.14-15.9,17.14H61.607c-8.765,0-15.9-7.687-15.9-17.14V59.518c0-6.037,4.535-10.955,10.108-10.955h3.149a3.656,3.656,0,0,1,1.2.214,4.274,4.274,0,0,1,2.683,4.083v1.416a1.428,1.428,0,1,0,2.857,0V52.857a4.276,4.276,0,0,1,2.666-4.09l.069-.02a3.9,3.9,0,0,1,1.142-.187h3.154c5.574,0,10.109,4.92,10.109,10.957Zm0,0" transform="translate(-0.004 0)" fill="#f9925a"/>
      <path id="Path_43" data-name="Path 43" d="M295.4,307.268c-.216.07-5.262,1.831-5.262,8.5a1.428,1.428,0,1,0,2.857,0c0-4.533,3.159-5.733,3.321-5.79a1.428,1.428,0,1,0-.915-2.706Zm0,0" transform="translate(-241.575 -255.775)" fill="#f9925a"/>
      <path id="Path_44" data-name="Path 44" d="M75.412,145.074H71.127a2.856,2.856,0,0,0-2.857,2.857v4.285a2.856,2.856,0,0,0,2.857,2.857h4.285a2.856,2.856,0,0,0,2.857-2.857v-4.285A2.856,2.856,0,0,0,75.412,145.074Zm-4.285,7.142v-4.285h4.285v4.285Zm0,0" transform="translate(-56.844 -120.792)" fill="#f9925a"/>
      <path id="Path_45" data-name="Path 45" d="M75.412,221.875H71.127a2.856,2.856,0,0,0-2.857,2.857v4.284a2.857,2.857,0,0,0,2.857,2.857h4.285a2.857,2.857,0,0,0,2.857-2.857v-4.284A2.856,2.856,0,0,0,75.412,221.875Zm-4.285,7.141v-4.284h4.285v4.284Zm0,0" transform="translate(-56.844 -184.738)" fill="#f9925a"/>
      <path id="Path_46" data-name="Path 46" d="M75.412,298.676H71.127a2.856,2.856,0,0,0-2.857,2.857v4.284a2.856,2.856,0,0,0,2.857,2.857h4.285a2.856,2.856,0,0,0,2.857-2.857v-4.284A2.856,2.856,0,0,0,75.412,298.676Zm-4.285,7.141v-4.284h4.285v4.284Zm0,0" transform="translate(-56.844 -248.684)" fill="#f9925a"/>
      <path id="Path_47" data-name="Path 47" d="M75.412,375.473H71.127a2.856,2.856,0,0,0-2.857,2.857v4.285a2.856,2.856,0,0,0,2.857,2.857h4.285a2.856,2.856,0,0,0,2.857-2.857V378.33A2.856,2.856,0,0,0,75.412,375.473Zm-4.285,7.142V378.33h4.285v4.285Zm0,0" transform="translate(-56.844 -312.627)" fill="#f9925a"/>
      <path id="Path_48" data-name="Path 48" d="M146.5,173.532h20a1.428,1.428,0,1,0,0-2.857h-20a1.428,1.428,0,1,0,0,2.857Zm0,0" transform="translate(-120.789 -142.108)" fill="#f9925a"/>
      <path id="Path_49" data-name="Path 49" d="M162.21,247.473H146.5a1.428,1.428,0,1,0,0,2.857H162.21a1.428,1.428,0,1,0,0-2.857Zm0,0" transform="translate(-120.79 -206.052)" fill="#f9925a"/>
      <path id="Path_50" data-name="Path 50" d="M159.353,324.273H146.5a1.428,1.428,0,1,0,0,2.857h12.854a1.428,1.428,0,1,0,0-2.857Zm0,0" transform="translate(-120.789 -269.997)" fill="#f9925a"/>
      <path id="Path_51" data-name="Path 51" d="M159.353,401.074H146.5a1.428,1.428,0,1,0,0,2.857h12.854a1.428,1.428,0,1,0,0-2.857Zm0,0" transform="translate(-120.789 -333.943)" fill="#f9925a"/>
    </g>
  </g>
</svg>
