<svg xmlns="http://www.w3.org/2000/svg" width="280" height="280" viewBox="0 0 280 280">
  <g id="Group_1401" data-name="Group 1401" transform="translate(-684 -233)">
    <g id="Group_1357" data-name="Group 1357">
      <g id="Group_1349" data-name="Group 1349" transform="translate(-67 31)">
        <circle id="Ellipse_3" data-name="Ellipse 3" cx="140" cy="140" r="140" transform="translate(751 202)" fill="#e4ff26"/>
      </g>
    </g>
    <path id="Path_338" data-name="Path 338" d="M80.571,61.948h-27.7v27.7h27.7ZM75.03,1V12.082H30.7V1H19.622V12.082H14.082A11.031,11.031,0,0,0,3.055,23.163L3,100.734a11.078,11.078,0,0,0,11.082,11.082H91.652a11.114,11.114,0,0,0,11.082-11.082V23.163A11.114,11.114,0,0,0,91.652,12.082H86.112V1Zm16.622,99.734H14.082V39.785H91.652Z" transform="translate(771.622 316.541)" fill="#03be98"/>
  </g>
</svg>
