<svg xmlns="http://www.w3.org/2000/svg" width="280" height="280" viewBox="0 0 280 280">
  <g id="Group_1345" data-name="Group 1345" transform="translate(-109 -185)">
    <g id="Group_1342" data-name="Group 1342" transform="translate(29 -65)">
      <circle id="Ellipse_11" data-name="Ellipse 11" cx="140" cy="140" r="140" transform="translate(80 250)" fill="#ff40c3"/>
      <path id="Path_132" data-name="Path 132" d="M80.571,61.948h-27.7v27.7h27.7ZM75.03,1V12.082H30.7V1H19.622V12.082H14.082A11.031,11.031,0,0,0,3.055,23.163L3,100.734a11.078,11.078,0,0,0,11.082,11.082H91.652a11.114,11.114,0,0,0,11.082-11.082V23.163A11.114,11.114,0,0,0,91.652,12.082H86.112V1Zm16.622,99.734H14.082V39.785H91.652Z" transform="translate(167.622 333.541)" fill="#e4ff26"/>
    </g>
  </g>
</svg>
