<svg xmlns="http://www.w3.org/2000/svg" width="588.443" height="582.305" viewBox="0 0 588.443 582.305">
  <g id="Group_1380" data-name="Group 1380" transform="translate(-644.324 -224.89)" opacity="0.7">
    <g id="diet" transform="translate(874.303 439.499)">
      <path id="Path_40" data-name="Path 40" d="M96.724,73.981h2.854a2.854,2.854,0,0,0,0-5.707H96.724a2.854,2.854,0,0,0,0,5.707Zm0,0" transform="translate(-62.479 -45.441)" fill="#68ffc7"/>
      <path id="Path_41" data-name="Path 41" d="M139.389,73.981h37.1a2.854,2.854,0,0,0,0-5.707h-37.1a2.854,2.854,0,1,0,0,5.707Zm0,0" transform="translate(-90.876 -45.441)" fill="#68ffc7"/>
      <path id="Path_42" data-name="Path 42" d="M145.326,91.323h-6.261a13.326,13.326,0,0,0-3.833.571,2.635,2.635,0,0,0-.285.082,13.219,13.219,0,0,0-4.144,2.344c.619-6.564,3.869-16.1,16.2-23.378a2.854,2.854,0,0,0-2.9-4.914A37.587,37.587,0,0,0,127.2,84.97c-.152-.494-.314-.976-.491-1.427a23.857,23.857,0,0,0-6.849-9.7V25.687a8.561,8.561,0,0,0-8.561-8.562H99.361a8.564,8.564,0,0,0-8.037-5.707H76.036a17.065,17.065,0,0,0-32.207,0H28.541a8.561,8.561,0,0,0-8.035,5.707H8.566A8.561,8.561,0,0,0,0,25.687v136.98a8.561,8.561,0,0,0,8.562,8.562H111.3a8.354,8.354,0,0,0,3.835-.928,35.052,35.052,0,0,0,7.953.928h10.668c20.661,0,37.473-17.919,37.473-39.953V118.918c0-15.21-11.62-27.6-25.9-27.6Zm-23.952-5.736a38.33,38.33,0,0,1,1.6,6.878c-.285-.123-.54-.286-.827-.38a12.955,12.955,0,0,0-4.378-.762H111.52c-.783,0-1.552.054-2.317.125-.071-.02-.123-.065-.2-.08-9.445-1.892-9.314-12.911-8.958-16.854a46.368,46.368,0,0,1,5.485-.306h.06A16.837,16.837,0,0,1,121.374,85.6ZM92.38,154.106H17.127V34.247h3.38a8.559,8.559,0,0,0,8.035,5.707H91.324a8.562,8.562,0,0,0,8.037-5.707h3.378V68.535c-7.37.263-7.859,2.315-8.122,3.488-1,5.871-.494,16.267,6.3,21.755a27.731,27.731,0,0,0-15.3,25.141v12.357a41.516,41.516,0,0,0,6.763,22.831ZM114.154,25.687V70.344a22.833,22.833,0,0,0-5.707-1.564V34.247a5.707,5.707,0,0,0-5.707-5.707H99.886V22.832H111.3a2.854,2.854,0,0,1,2.853,2.854ZM28.541,17.125H45.95a2.347,2.347,0,0,0,.285-.06,2.752,2.752,0,0,0,.525-.106,2.689,2.689,0,0,0,.523-.217A2.744,2.744,0,0,0,48.4,15.624a2.55,2.55,0,0,0,.221-.523,2.381,2.381,0,0,0,.114-.265,11.415,11.415,0,0,1,22.367,0,2.868,2.868,0,0,0,.12.3,3.3,3.3,0,0,0,.161.408,2.748,2.748,0,0,0,.347.516,2.692,2.692,0,0,0,.268.3,2.823,2.823,0,0,0,.554.374,2.233,2.233,0,0,0,1.364.385H91.324a2.854,2.854,0,0,1,2.854,2.854V31.394a2.854,2.854,0,0,1-2.854,2.853H28.541a2.853,2.853,0,0,1-2.853-2.853V19.979a2.854,2.854,0,0,1,2.853-2.854ZM8.566,165.521a2.854,2.854,0,0,1-2.854-2.854V25.686a2.854,2.854,0,0,1,2.854-2.854H19.981v5.707H17.126a5.707,5.707,0,0,0-5.707,5.707V154.105a5.707,5.707,0,0,0,5.707,5.707H96.911a38.174,38.174,0,0,0,6.969,5.707Zm156.956-34.246c0,18.881-14.252,34.246-31.765,34.246H123.089c-17.513,0-31.765-15.359-31.765-34.246V118.918c0-12.063,9.061-21.888,20.2-21.888h6.293a7.305,7.305,0,0,1,2.395.428,8.54,8.54,0,0,1,5.361,8.158v2.828a2.854,2.854,0,1,0,5.707,0v-2.836a8.544,8.544,0,0,1,5.326-8.171l.137-.039a7.786,7.786,0,0,1,2.282-.374h6.3c11.138.005,20.2,9.83,20.2,21.893Zm0,0" transform="translate(-0.004 0)" fill="#68ffc7"/>
      <path id="Path_43" data-name="Path 43" d="M300.65,307.343c-.431.14-10.513,3.658-10.513,16.976a2.854,2.854,0,1,0,5.707,0c0-9.057,6.312-11.454,6.635-11.569a2.854,2.854,0,1,0-1.829-5.407Zm0,0" transform="translate(-193.109 -204.459)" fill="#68ffc7"/>
      <path id="Path_44" data-name="Path 44" d="M82.539,145.074H73.977a5.707,5.707,0,0,0-5.707,5.707v8.562a5.707,5.707,0,0,0,5.707,5.707h8.562a5.707,5.707,0,0,0,5.707-5.707v-8.562A5.707,5.707,0,0,0,82.539,145.074Zm-8.562,14.269v-8.562h8.562v8.562Zm0,0" transform="translate(-45.44 -96.558)" fill="#68ffc7"/>
      <path id="Path_45" data-name="Path 45" d="M82.539,221.875H73.977a5.707,5.707,0,0,0-5.707,5.707v8.561a5.708,5.708,0,0,0,5.707,5.709h8.562a5.708,5.708,0,0,0,5.707-5.709v-8.561A5.707,5.707,0,0,0,82.539,221.875Zm-8.562,14.268v-8.561h8.562v8.561Zm0,0" transform="translate(-45.44 -147.674)" fill="#68ffc7"/>
      <path id="Path_46" data-name="Path 46" d="M82.539,298.676H73.977a5.707,5.707,0,0,0-5.707,5.707v8.561a5.707,5.707,0,0,0,5.707,5.707h8.562a5.707,5.707,0,0,0,5.707-5.707v-8.561A5.707,5.707,0,0,0,82.539,298.676Zm-8.562,14.268v-8.561h8.562v8.561Zm0,0" transform="translate(-45.44 -198.791)" fill="#68ffc7"/>
      <path id="Path_47" data-name="Path 47" d="M82.539,375.473H73.977a5.707,5.707,0,0,0-5.707,5.707v8.562a5.707,5.707,0,0,0,5.707,5.707h8.562a5.707,5.707,0,0,0,5.707-5.707V381.18A5.707,5.707,0,0,0,82.539,375.473Zm-8.562,14.269V381.18h8.562v8.562Zm0,0" transform="translate(-45.44 -249.906)" fill="#68ffc7"/>
      <path id="Path_48" data-name="Path 48" d="M147.924,176.383h39.952a2.854,2.854,0,1,0,0-5.707H147.924a2.854,2.854,0,1,0,0,5.707Zm0,0" transform="translate(-96.556 -113.597)" fill="#68ffc7"/>
      <path id="Path_49" data-name="Path 49" d="M179.315,247.473h-31.39a2.854,2.854,0,1,0,0,5.707h31.39a2.854,2.854,0,1,0,0-5.707Zm0,0" transform="translate(-96.557 -164.712)" fill="#68ffc7"/>
      <path id="Path_50" data-name="Path 50" d="M173.607,324.273H147.924a2.854,2.854,0,1,0,0,5.707h25.683a2.854,2.854,0,1,0,0-5.707Zm0,0" transform="translate(-96.556 -215.828)" fill="#68ffc7"/>
      <path id="Path_51" data-name="Path 51" d="M173.607,401.074H147.924a2.854,2.854,0,1,0,0,5.707h25.683a2.854,2.854,0,1,0,0-5.707Zm0,0" transform="translate(-96.556 -266.945)" fill="#68ffc7"/>
    </g>
    <g id="Group_197" data-name="Group 197" transform="translate(-67 62)">
      <path id="bar" d="M81.607,0a4.989,4.989,0,0,0-4.44,7.271L65.284,19.153h-38.4a1.528,1.528,0,1,0,0,3.056H62.228l-6.52,6.52H10.48l-5.616-6.52H19.75a1.528,1.528,0,1,0,0-3.056H1.53A1.528,1.528,0,0,0,.372,21.678L35.456,62.407V69.7a1.528,1.528,0,1,0,3.056,0v-6.33h3.871V89.9a5.576,5.576,0,0,0,3.076,5l10.584,5.35H24.853L35.437,94.9a5.578,5.578,0,0,0,3.075-5V76.8a1.528,1.528,0,1,0-3.056,0V89.9a2.535,2.535,0,0,1-1.4,2.273l-16.305,8.243a1.528,1.528,0,0,0,.69,2.892H62.454a1.528,1.528,0,0,0,.69-2.892L46.838,92.17a2.535,2.535,0,0,1-1.4-2.273V62.407L58.067,47.749a1.528,1.528,0,1,0-2.316-1.995L43.212,60.311H37.684L13.113,31.786H52.651l-3.99,3.99a10.182,10.182,0,0,0-6.105-2.156,7.578,7.578,0,0,0-5.42,2.156c-2.9,2.9-2.818,7.82,0,11.524L33.2,51.233a1.528,1.528,0,1,0,2.161,2.161L39.3,49.462A10.183,10.183,0,0,0,45.4,51.619a7.578,7.578,0,0,0,5.419-2.156c2.9-2.9,2.818-7.819,0-11.524l6.152-6.152H67.783l-7.3,8.477A1.528,1.528,0,0,0,62.8,42.258l17.727-20.58a1.529,1.529,0,0,0-1.158-2.526H69.607l9.722-9.721A4.991,4.991,0,1,0,81.608,0ZM48.662,47.3A4.531,4.531,0,0,1,45.4,48.563a7.363,7.363,0,0,1-5.09-2.261l-.008-.009-.009-.008c-2.574-2.582-3.024-6.324-1-8.348a4.528,4.528,0,0,1,3.258-1.261,7.363,7.363,0,0,1,5.1,2.27c2.583,2.582,3.035,6.33,1.01,8.356Zm27.37-25.092-5.617,6.52H60.031l6.52-6.52ZM81.607,6.927a1.936,1.936,0,1,1,1.936-1.936A1.938,1.938,0,0,1,81.607,6.927Zm0,0" transform="translate(1129.174 598.956)" fill="#f887e4"/>
      <g id="chef" transform="translate(1002.901 650.499)">
        <g id="Group_59" data-name="Group 59">
          <g id="Group_58" data-name="Group 58">
            <path id="Path_33" data-name="Path 33" d="M110.971,215.485a2.152,2.152,0,1,0-4.3,0c0,5.652,6.234,13.411,6.944,14.279a2.153,2.153,0,1,0,3.329-2.732C114.632,224.22,110.971,218.6,110.971,215.485Z" transform="translate(-85.144 -170.289)" fill="#f887e4"/>
            <path id="Path_34" data-name="Path 34" d="M317.945,213.333a2.151,2.151,0,0,0-2.152,2.152c0,3.1-3.661,8.731-5.969,11.549a2.153,2.153,0,0,0,3.329,2.73c.71-.868,6.944-8.628,6.944-14.279A2.151,2.151,0,0,0,317.945,213.333Z" transform="translate(-246.922 -170.289)" fill="#f887e4"/>
            <path id="Path_35" data-name="Path 35" d="M226.152,213.333A2.151,2.151,0,0,0,224,215.485V228.4a2.152,2.152,0,1,0,4.3,0V215.485A2.151,2.151,0,0,0,226.152,213.333Z" transform="translate(-178.804 -170.289)" fill="#f887e4"/>
            <path id="Path_36" data-name="Path 36" d="M71.022,8.609a22.542,22.542,0,0,0-4.083.435,25.742,25.742,0,0,0-39.183,0,22.564,22.564,0,0,0-4.083-.435A23.665,23.665,0,0,0,12.964,53.38L12.922,85.9A8.783,8.783,0,0,0,21.7,94.7H73a8.79,8.79,0,0,0,8.781-8.781V53.349A23.661,23.661,0,0,0,71.022,8.609Zm6.457,77.307A4.483,4.483,0,0,1,73,90.392H21.7a4.478,4.478,0,0,1-4.477-4.483l.011-8.43H77.479ZM78.811,50a1.929,1.929,0,0,0-.322.166,2.154,2.154,0,0,0-.988,1.511,2.08,2.08,0,0,0-.023.362V73.174H17.243l.028-21.108a2.216,2.216,0,0,0-.021-.353,2.157,2.157,0,0,0-.341-.891,2.132,2.132,0,0,0-.639-.624,2.253,2.253,0,0,0-.338-.175,19.361,19.361,0,0,1,7.743-37.11c.417,0,.858.05,1.291.085a25.639,25.639,0,0,0-3.443,12.829,2.152,2.152,0,0,0,4.3,0,21.522,21.522,0,1,1,43.044,0,2.152,2.152,0,0,0,4.3,0A25.64,25.64,0,0,0,69.732,13c.432-.034.873-.085,1.291-.085A19.358,19.358,0,0,1,78.811,50Z" fill="#f887e4"/>
          </g>
        </g>
      </g>
      <g id="cooking" transform="translate(1202.75 472.005)">
        <g id="Group_61" data-name="Group 61" transform="translate(0 0)">
          <g id="Group_60" data-name="Group 60">
            <path id="Path_37" data-name="Path 37" d="M95.235,89.966H85.388L83,67.258l2.646,3.968.655,3.282a5.412,5.412,0,1,0,10.148-3.48l-1.382-2.765a.175.175,0,0,0-.021-.027c0-.008,0-.016-.006-.024L85.353,50.455a1.623,1.623,0,0,0-.817-.726l-4.374-1.75a14.419,14.419,0,0,0,3.569-18.251L82.9,21.4c2.6-1.1,4.266-3.262,4.266-5.68,0-3.475-3.449-6.318-7.753-6.452a9.682,9.682,0,0,0-16.777,0c-4.3.134-7.753,2.976-7.753,6.452,0,2.418,1.667,4.579,4.266,5.68l-.833,8.332a14.415,14.415,0,0,0,3.57,18.25l-4.374,1.75a1.614,1.614,0,0,0-.66.491L51.4,57.027,44.82,51.762l-1.758-2.93a6.1,6.1,0,0,0-1.091-1.307V43.155a4.836,4.836,0,0,0-3.228-4.545V31.856h1.614A4.848,4.848,0,0,0,45.2,27.014V17.329a4.848,4.848,0,0,0-4.842-4.842H33.9a4.848,4.848,0,0,0-4.842,4.842v9.685A4.848,4.848,0,0,0,33.9,31.856h1.614V38.61a4.836,4.836,0,0,0-3.228,4.545v6.463a6,6,0,0,0,2.447,7.543l3.054,1.832,10.731,9.389a4.822,4.822,0,0,0,6.289.074L59.318,64.7,56.656,89.966H28.438l1.893-3.787a8.066,8.066,0,0,0,5.18-7.512V75.141A4.831,4.831,0,0,0,33.9,65.754H4.842a4.831,4.831,0,0,0-1.614,9.388v3.525a8.066,8.066,0,0,0,5.18,7.512L10.3,89.966H1.614A1.615,1.615,0,0,0,0,91.58v6.457a1.615,1.615,0,0,0,1.614,1.614h93.62a1.615,1.615,0,0,0,1.614-1.614V91.58A1.615,1.615,0,0,0,95.235,89.966ZM35.511,28.628H33.9a1.617,1.617,0,0,1-1.614-1.614V17.329A1.617,1.617,0,0,1,33.9,15.715h1.614Zm58.048,43.84a2.183,2.183,0,1,1-4.093,1.4l-.416-2.084,3.708-.927ZM82.8,52.509,91.2,67.921l-3.328.831L82.2,60.24l-2.344-8.907ZM79.255,62.525l2.889,27.44H59.9l2.888-27.44ZM63.433,59.3l2.379-9.047c.065.024.131.042.2.065.324.119.65.234.985.331.128.037.257.066.384.1.308.081.617.158.931.218.158.031.318.048.476.073.292.045.583.094.88.123.208.019.418.021.626.032.245.013.486.037.733.037s.487-.024.733-.037c.21-.011.418-.013.626-.032.3-.027.588-.076.88-.123.158-.024.318-.042.476-.073.315-.06.623-.139.931-.218.128-.034.257-.061.384-.1.334-.1.662-.21.985-.331.065-.024.131-.04.2-.065L78.614,59.3ZM58.109,15.715c0-1.75,2.218-3.228,4.842-3.228a2.521,2.521,0,0,1,.273.021l.26.024a1.641,1.641,0,0,0,1.606-.973,6.453,6.453,0,0,1,11.866,0,1.628,1.628,0,0,0,1.606.973l.26-.024a2.46,2.46,0,0,1,.271-.021c2.625,0,4.842,1.479,4.842,3.228,0,1.29-1.3,2.523-3.172,3a1.614,1.614,0,0,0-1.207,1.724l.981,9.8H61.507l.98-9.8a1.614,1.614,0,0,0-1.207-1.724C59.413,18.238,58.109,17,58.109,15.715ZM59.723,36.7a11.262,11.262,0,0,1,.476-3.228H81.844a11.309,11.309,0,0,1-7.062,13.87l-.053.019a11.213,11.213,0,0,1-7.415,0l-.053-.019A11.323,11.323,0,0,1,59.723,36.7ZM38.739,15.715h1.614a1.617,1.617,0,0,1,1.614,1.614v9.685a1.617,1.617,0,0,1-1.614,1.614H38.739ZM37.125,41.541a1.617,1.617,0,0,1,1.614,1.614v2.805l-.031,0c-.039,0-.073-.023-.111-.027-.089-.011-.176,0-.263,0a6.07,6.07,0,0,0-.839-.01c-.14.008-.279.008-.416.026a5.981,5.981,0,0,0-.978.216c-.137.042-.27.086-.4.136-.061.023-.124.037-.184.061v-3.2h0A1.617,1.617,0,0,1,37.125,41.541Zm-.731,12.852a2.807,2.807,0,0,1-1.06-3.713c.006-.013.018-.021.024-.034a3.585,3.585,0,0,1,.21-.35,2.408,2.408,0,0,1,1.044-.885c.023-.011.045-.026.068-.037a2.814,2.814,0,0,1,.87-.232l.066-.006a2.882,2.882,0,0,1,.878.068c.031.006.061.013.09.021a2.811,2.811,0,0,1,.865.389l.026.013a2.841,2.841,0,0,1,.818.867l1.257,2.1-3.06,3.06ZM52.737,65.976a1.609,1.609,0,0,1-2.1-.024L41.1,57.6,43.7,55l6.942,5.554a1.612,1.612,0,0,0,2.268-.252l6.19-7.738,3.085-1.233L59.9,60ZM4.842,72.21a1.614,1.614,0,0,1,0-3.228H33.9a1.614,1.614,0,1,1,0,3.228Zm1.614,6.457V75.438H32.283v3.228a4.848,4.848,0,0,1-4.842,4.842H11.3A4.848,4.848,0,0,1,6.457,78.667Zm19.986,8.071-1.614,3.228H20.984V86.737Zm-8.687,0v3.228H13.911L12.3,86.737ZM93.62,96.422H3.228V93.194H93.62Z" transform="translate(0 -4.416)" fill="#f887e4"/>
          </g>
        </g>
        <g id="Group_63" data-name="Group 63" transform="translate(64.566 64.566)">
          <g id="Group_62" data-name="Group 62">
            <path id="Path_38" data-name="Path 38" d="M331.3,324.416h-9.685A1.615,1.615,0,0,0,320,326.03v4.842a6.457,6.457,0,1,0,12.913,0V326.03A1.615,1.615,0,0,0,331.3,324.416Zm-1.614,6.457a3.228,3.228,0,1,1-6.457,0v-3.228h6.457Z" transform="translate(-320 -324.416)" fill="#f887e4"/>
          </g>
        </g>
        <g id="Group_65" data-name="Group 65" transform="translate(17.562 48.028)">
          <g id="Group_64" data-name="Group 64" transform="translate(0 0)">
            <rect id="Rectangle_2" data-name="Rectangle 2" width="3" height="8" transform="translate(-0.313 -0.033)" fill="#f887e4"/>
          </g>
        </g>
        <g id="Group_67" data-name="Group 67" transform="translate(25.753 51.751)">
          <g id="Group_66" data-name="Group 66" transform="translate(0 0)">
            <rect id="Rectangle_3" data-name="Rectangle 3" width="2" height="6" transform="translate(0.497 0.244)" fill="#f887e4"/>
          </g>
        </g>
        <g id="Group_69" data-name="Group 69" transform="translate(9.372 51.751)">
          <g id="Group_68" data-name="Group 68" transform="translate(0 0)">
            <rect id="Rectangle_4" data-name="Rectangle 4" width="4" height="6" transform="translate(-0.122 0.244)" fill="#f887e4"/>
          </g>
        </g>
        <g id="Group_71" data-name="Group 71" transform="translate(17.562 42.071)">
          <g id="Group_70" data-name="Group 70" transform="translate(0 0)">
            <rect id="Rectangle_5" data-name="Rectangle 5" width="3" height="3" transform="translate(-0.313 -0.076)" fill="#f887e4"/>
          </g>
        </g>
        <g id="Group_73" data-name="Group 73" transform="translate(9.372 45.049)">
          <g id="Group_72" data-name="Group 72" transform="translate(0 0)">
            <rect id="Rectangle_6" data-name="Rectangle 6" width="4" height="3" transform="translate(-0.122 -0.055)" fill="#f887e4"/>
          </g>
        </g>
        <g id="Group_75" data-name="Group 75" transform="translate(25.753 45.049)">
          <g id="Group_74" data-name="Group 74" transform="translate(0 0)">
            <rect id="Rectangle_7" data-name="Rectangle 7" width="2" height="3" transform="translate(0.497 -0.055)" fill="#f887e4"/>
          </g>
        </g>
      </g>
      <g id="pasta" transform="translate(1112.442 202.592)">
        <g id="Group_98" data-name="Group 98" transform="translate(0 82.644)">
          <g id="Group_97" data-name="Group 97">
            <path id="Path_94" data-name="Path 94" d="M101.584,409.6H1.722A1.721,1.721,0,0,0,0,411.322a18.962,18.962,0,0,0,18.939,18.939H84.366a18.962,18.962,0,0,0,18.939-18.939A1.72,1.72,0,0,0,101.584,409.6ZM84.366,426.817H18.939a15.518,15.518,0,0,1-15.4-13.774H99.765A15.516,15.516,0,0,1,84.366,426.817Z" transform="translate(0 -409.6)" fill="#f887e4"/>
          </g>
        </g>
        <g id="Group_100" data-name="Group 100" transform="translate(33.285 56.818)">
          <g id="Group_99" data-name="Group 99">
            <path id="Path_95" data-name="Path 95" d="M183.336,281.6h-.022a27.389,27.389,0,0,0-18.347,7.037l2.3,2.559a23.964,23.964,0,0,1,16.047-6.152h.019c9.542,0,17.7,4.983,20.783,12.691l3.2-1.278C203.706,287.432,194.292,281.6,183.336,281.6Z" transform="translate(-164.967 -281.6)" fill="#f887e4"/>
          </g>
        </g>
        <g id="Group_102" data-name="Group 102" transform="translate(35.726 63.726)">
          <g id="Group_101" data-name="Group 101">
            <path id="Path_96" data-name="Path 96" d="M206.154,320.557a20.688,20.688,0,0,0-29.087,2.772l2.655,2.192a17.215,17.215,0,0,1,27.359,1.064l2.82-1.978A20.851,20.851,0,0,0,206.154,320.557Z" transform="translate(-177.067 -315.835)" fill="#f887e4"/>
          </g>
        </g>
        <g id="Group_104" data-name="Group 104" transform="translate(41.813 70.598)">
          <g id="Group_103" data-name="Group 103">
            <path id="Path_97" data-name="Path 97" d="M226.712,353.825a13.791,13.791,0,0,0-19.48.2l2.46,2.411a10.331,10.331,0,0,1,17.71,7.231h3.444A13.842,13.842,0,0,0,226.712,353.825Z" transform="translate(-207.232 -349.895)" fill="#f887e4"/>
          </g>
        </g>
        <g id="Group_106" data-name="Group 106" transform="translate(68.87 63.705)">
          <g id="Group_105" data-name="Group 105">
            <path id="Path_98" data-name="Path 98" d="M343.131,315.733h-1.8v3.444h1.729A19.118,19.118,0,0,1,362,336.537l3.43-.286A22.5,22.5,0,0,0,343.131,315.733Z" transform="translate(-341.334 -315.733)" fill="#f887e4"/>
          </g>
        </g>
        <g id="Group_108" data-name="Group 108" transform="translate(58.979 70.598)">
          <g id="Group_107" data-name="Group 107">
            <path id="Path_99" data-name="Path 99" d="M314.19,353.841a15.5,15.5,0,0,0-21.88,1.219l2.565,2.3a12.052,12.052,0,0,1,20.942,6.524l3.418-.434A15.507,15.507,0,0,0,314.19,353.841Z" transform="translate(-292.31 -349.895)" fill="#f887e4"/>
          </g>
        </g>
        <g id="Group_110" data-name="Group 110" transform="translate(62.174 77.463)">
          <g id="Group_109" data-name="Group 109">
            <path id="Path_100" data-name="Path 100" d="M318.622,384.19a8.618,8.618,0,0,0-10.475,6.205l3.337.854a5.165,5.165,0,0,1,10.007,0l3.337-.854A8.609,8.609,0,0,0,318.622,384.19Z" transform="translate(-308.147 -383.919)" fill="#f887e4"/>
          </g>
        </g>
        <g id="Group_112" data-name="Group 112" transform="translate(10.337 63.667)">
          <g id="Group_111" data-name="Group 111">
            <path id="Path_101" data-name="Path 101" d="M75.368,315.621A22.383,22.383,0,0,0,51.234,336.1l3.431.282a18.936,18.936,0,0,1,20.422-17.329,19.034,19.034,0,0,1,7.987,2.51l1.734-2.977A22.518,22.518,0,0,0,75.368,315.621Z" transform="translate(-51.234 -315.546)" fill="#f887e4"/>
          </g>
        </g>
        <g id="Group_114" data-name="Group 114" transform="translate(17.335 70.553)">
          <g id="Group_113" data-name="Group 113">
            <path id="Path_102" data-name="Path 102" d="M103.188,349.793a15.517,15.517,0,0,0-17.274,13.485l3.418.42a12.051,12.051,0,0,1,23.922,0l3.421-.42A15.474,15.474,0,0,0,103.188,349.793Z" transform="translate(-85.914 -349.676)" fill="#f887e4"/>
          </g>
        </g>
        <g id="Group_116" data-name="Group 116" transform="translate(24.383 77.493)">
          <g id="Group_115" data-name="Group 115">
            <path id="Path_103" data-name="Path 103" d="M131.354,384.355a8.606,8.606,0,0,0-10.506,6.152l3.332.871a5.166,5.166,0,0,1,10,0l3.33-.873A8.615,8.615,0,0,0,131.354,384.355Z" transform="translate(-120.848 -384.072)" fill="#f887e4"/>
          </g>
        </g>
        <g id="Group_118" data-name="Group 118" transform="translate(44.766 77.479)">
          <g id="Group_117" data-name="Group 117">
            <path id="Path_104" data-name="Path 104" d="M228.754,384a6.894,6.894,0,0,0-6.887,6.887h3.444a3.444,3.444,0,0,1,6.887,0h3.444A6.894,6.894,0,0,0,228.754,384Z" transform="translate(-221.867 -384)" fill="#f887e4"/>
          </g>
        </g>
        <g id="Group_120" data-name="Group 120" transform="translate(17.217 6.887)">
          <g id="Group_119" data-name="Group 119">
            <rect id="Rectangle_8" data-name="Rectangle 8" width="13.774" height="3.444" fill="#f887e4"/>
          </g>
        </g>
        <g id="Group_122" data-name="Group 122" transform="translate(20.661 13.774)">
          <g id="Group_121" data-name="Group 121">
            <rect id="Rectangle_9" data-name="Rectangle 9" width="10.331" height="3.444" fill="#f887e4"/>
          </g>
        </g>
        <g id="Group_124" data-name="Group 124" transform="translate(6.887)">
          <g id="Group_123" data-name="Group 123">
            <path id="Path_105" data-name="Path 105" d="M40.672,37.025a10.453,10.453,0,0,1,0-10.343,13.913,13.913,0,0,0,0-13.762,10.453,10.453,0,0,1,0-10.343A1.722,1.722,0,0,0,39.178,0H34.133V3.444h2.411a13.921,13.921,0,0,0,1.14,11.185,10.453,10.453,0,0,1,0,10.343,13.913,13.913,0,0,0,0,13.762,10.453,10.453,0,0,1,0,10.343A13.83,13.83,0,0,0,37.613,62.7a26.576,26.576,0,0,1,1.326,3.542l3.3-.973a29.8,29.8,0,0,0-1.569-4.139,10.453,10.453,0,0,1,0-10.343A13.913,13.913,0,0,0,40.672,37.025Z" transform="translate(-34.133)" fill="#f887e4"/>
          </g>
        </g>
        <g id="Group_126" data-name="Group 126" transform="translate(15.745)">
          <g id="Group_125" data-name="Group 125">
            <path id="Path_106" data-name="Path 106" d="M165.59,12.552a9.18,9.18,0,0,0-9.4-8.884l-50.17,1.476L103.4,2.517A8.55,8.55,0,0,0,97.318,0H81.348a1.721,1.721,0,0,0-1.494.866,13.913,13.913,0,0,0,0,13.762,10.453,10.453,0,0,1,0,10.343,13.913,13.913,0,0,0,0,13.762,10.453,10.453,0,0,1,0,10.343,13.913,13.913,0,0,0,0,13.762,10.378,10.378,0,0,1,.62,1.284l3.2-1.281a13.634,13.634,0,0,0-.826-1.711,10.453,10.453,0,0,1,0-10.343,13.913,13.913,0,0,0,0-13.762,10.453,10.453,0,0,1,0-10.343,13.715,13.715,0,0,0,1.14-2.577H97.316a8.553,8.553,0,0,0,6.083-2.519L106,18.981l49.914,2.934c.179.01.429.007.534.016a9.154,9.154,0,0,0,9.143-9.137Zm-9.141,5.935a1.525,1.525,0,0,0-.327-.009L105.434,15.5a1.7,1.7,0,0,0-1.319.5l-3.151,3.151a5.132,5.132,0,0,1-3.65,1.51H84.637a13.888,13.888,0,0,0-1.794-7.743A10.463,10.463,0,0,1,82.4,3.444H97.316a5.127,5.127,0,0,1,3.648,1.512l3.151,3.151a1.685,1.685,0,0,0,1.267.5l50.911-1.5a5.69,5.69,0,1,1,.157,11.377Z" transform="translate(-78.033 0)" fill="#f887e4"/>
          </g>
        </g>
        <g id="Group_128" data-name="Group 128" transform="translate(22.63 22.09)">
          <g id="Group_127" data-name="Group 127">
            <path id="Path_107" data-name="Path 107" d="M116.967,124.417a10.454,10.454,0,0,1,0-10.341,13.8,13.8,0,0,0,1.5-3.834l-3.359-.759a10.392,10.392,0,0,1-1.124,2.882,13.913,13.913,0,0,0,0,13.762,10.455,10.455,0,0,1,0,10.346,13.907,13.907,0,0,0-.47,12.851l3.108-1.479a10.457,10.457,0,0,1,.353-9.666A13.913,13.913,0,0,0,116.967,124.417Z" transform="translate(-112.157 -109.483)" fill="#f887e4"/>
          </g>
        </g>
        <g id="Group_130" data-name="Group 130" transform="translate(6.887 6.887)">
          <g id="Group_129" data-name="Group 129">
            <rect id="Rectangle_10" data-name="Rectangle 10" width="3.444" height="3.444" fill="#f887e4"/>
          </g>
        </g>
        <g id="Group_132" data-name="Group 132" transform="translate(6.887 13.774)">
          <g id="Group_131" data-name="Group 131">
            <rect id="Rectangle_11" data-name="Rectangle 11" width="5.165" height="3.444" fill="#f887e4"/>
          </g>
        </g>
        <g id="Group_134" data-name="Group 134" transform="translate(6.887 20.661)">
          <g id="Group_133" data-name="Group 133">
            <rect id="Rectangle_12" data-name="Rectangle 12" width="6.887" height="3.444" fill="#f887e4"/>
          </g>
        </g>
      </g>
      <g id="menu" transform="translate(1202.773 337.167)">
        <path id="Path_85" data-name="Path 85" d="M111.924,347.129a.862.862,0,0,1-.8.471.836.836,0,0,1-.779-.471l-2.086-3.918v7.944c0,.49-.6.744-1.178.744-.6,0-1.179-.254-1.179-.744V339.819a1.082,1.082,0,0,1,1.179-1.178c.852,0,1.233.181,1.832,1.251l2.231,4.063,2.23-4.063c.6-1.07,1-1.251,1.851-1.251a1.082,1.082,0,0,1,1.178,1.178v11.336c0,.49-.6.744-1.178.744-.6,0-1.179-.254-1.179-.744v-7.8Zm0,0" transform="translate(-84.535 -270.314)" fill="#f887e4"/>
        <path id="Path_86" data-name="Path 86" d="M181.155,344.332h2.757c.471,0,.743.454.743.943a.821.821,0,0,1-.743.907h-2.757v3.645h5.132c.472,0,.744.489.744,1.052,0,.489-.236,1.016-.744,1.016h-6.457c-.526,0-1.034-.255-1.034-.744V339.38c0-.489.508-.744,1.034-.744h6.457c.508,0,.744.527.744,1.016,0,.563-.272,1.052-.744,1.052h-5.132Zm0,0" transform="translate(-142.721 -270.31)" fill="#f887e4"/>
        <path id="Path_87" data-name="Path 87" d="M242.762,351.152l-3.9-7.291v7.291c0,.49-.6.744-1.179.744-.6,0-1.179-.254-1.179-.744V339.381c0-.508.581-.743,1.179-.743.853,0,1.2.181,1.76,1.251l3.5,6.766v-7.291c0-.508.58-.726,1.179-.726.58,0,1.178.218,1.178.726v11.789c0,.489-.6.744-1.178.744A1.416,1.416,0,0,1,242.762,351.152Zm0,0" transform="translate(-188.785 -270.311)" fill="#f887e4"/>
        <path id="Path_88" data-name="Path 88" d="M307.032,339.365c0-.508.58-.725,1.178-.725.581,0,1.179.218,1.179.725v8.488c0,3.029-1.922,4.154-4.353,4.154-2.449,0-4.353-1.125-4.353-4.154v-8.488c0-.508.58-.725,1.179-.725.58,0,1.178.218,1.178.725v8.488a2,2,0,1,0,3.99,0v-8.488Zm0,0" transform="translate(-240.015 -270.313)" fill="#f887e4"/>
        <path id="Path_89" data-name="Path 89" d="M315.088,422.148h-8.622a1.531,1.531,0,1,0,0,3.063h8.622a1.531,1.531,0,0,0,0-3.063Zm0,0" transform="translate(-243.408 -336.972)" fill="#f887e4"/>
        <path id="Path_90" data-name="Path 90" d="M133.1,422.148H98.208a1.531,1.531,0,0,0,0,3.063H133.1a1.531,1.531,0,0,0,0-3.063Zm0,0" transform="translate(-77.17 -336.972)" fill="#f887e4"/>
        <path id="Path_91" data-name="Path 91" d="M148.85,306.242H98.208a1.531,1.531,0,0,0,0,3.063H148.85a1.531,1.531,0,0,0,0-3.063Zm0,0" transform="translate(-77.17 -244.452)" fill="#f887e4"/>
        <path id="Path_92" data-name="Path 92" d="M148,102.4h-1.486a23.063,23.063,0,0,0-18.383-21.292l.3-2.826a3.277,3.277,0,0,0-3.259-3.618h-3.272a3.276,3.276,0,0,0-3.259,3.618l.3,2.826A23.062,23.062,0,0,0,100.546,102.4H99.06a2.387,2.387,0,0,0-2.384,2.384v3.161a2.387,2.387,0,0,0,2.384,2.384H148a2.387,2.387,0,0,0,2.384-2.384v-3.161A2.386,2.386,0,0,0,148,102.4ZM121.734,77.8a.207.207,0,0,1,.159-.07h3.272a.208.208,0,0,1,.159.07.2.2,0,0,1,.054.166l-.286,2.736c-.516-.035-1.037-.054-1.562-.054s-1.046.02-1.562.054l-.287-2.736a.21.21,0,0,1,.054-.166Zm25.584,29.467H99.739v-1.8h6.454a1.531,1.531,0,1,0,0-3.063h-2.578a19.953,19.953,0,0,1,39.826,0H113.32a1.531,1.531,0,1,0,0,3.063h34Zm0,0" transform="translate(-77.17 -59.603)" fill="#f887e4"/>
        <path id="Path_93" data-name="Path 93" d="M82.621,0H10.1A3.9,3.9,0,0,0,6.2,3.9V6.666H4.768a4.769,4.769,0,0,0,0,9.538H6.2v6.549H4.768a4.769,4.769,0,0,0,0,9.537H6.2v6.55H4.768a4.769,4.769,0,0,0,0,9.537H6.2v6.55H4.768a4.769,4.769,0,0,0,0,9.537H6.2v6.55H4.768a4.769,4.769,0,0,0,0,9.537H6.2V87.1H4.768a4.769,4.769,0,0,0,0,9.537H6.2V99.4a3.9,3.9,0,0,0,3.9,3.9H82.621a3.905,3.905,0,0,0,3.9-3.9V3.9a3.905,3.905,0,0,0-3.9-3.9ZM6.2,13.141H4.768a1.706,1.706,0,0,1,0-3.412H6.2Zm0,16.086H4.768a1.706,1.706,0,0,1,0-3.411H6.2Zm0,16.087H4.768a1.706,1.706,0,0,1,0-3.412H6.2ZM6.2,61.4H4.768a1.706,1.706,0,0,1,0-3.412H6.2Zm0,16.086H4.768a1.706,1.706,0,1,1,0-3.411H6.2Zm0,16.087H4.768a1.706,1.706,0,0,1,0-3.411H6.2ZM83.458,99.4a.838.838,0,0,1-.837.838H10.1A.838.838,0,0,1,9.26,99.4V3.9a.838.838,0,0,1,.837-.837H82.621a.838.838,0,0,1,.837.837Zm0,0" transform="translate(0 0.001)" fill="#f887e4"/>
      </g>
    </g>
    <g id="Group_1379" data-name="Group 1379">
      <g id="beer" transform="translate(761.92 254.206)">
        <g id="Group_51" data-name="Group 51" transform="translate(48.623 91.239)">
          <g id="Group_50" data-name="Group 50">
            <path id="Path_29" data-name="Path 29" d="M278.022,451.29a2.022,2.022,0,1,0,2.022,2.022A2.022,2.022,0,0,0,278.022,451.29Z" transform="translate(-276 -451.29)" fill="#ffd500"/>
          </g>
        </g>
        <g id="Group_53" data-name="Group 53" transform="translate(20.217 40.493)">
          <g id="Group_52" data-name="Group 52">
            <path id="Path_30" data-name="Path 30" d="M137.522,200.29a2.022,2.022,0,0,0-2.022,2.022v38.615a2.022,2.022,0,0,0,4.043,0V202.312A2.022,2.022,0,0,0,137.522,200.29Z" transform="translate(-135.5 -200.29)" fill="#ffd500"/>
          </g>
        </g>
        <g id="Group_55" data-name="Group 55" transform="translate(36.391 40.493)">
          <g id="Group_54" data-name="Group 54">
            <path id="Path_31" data-name="Path 31" d="M217.522,200.29a2.022,2.022,0,0,0-2.022,2.022v38.615a2.022,2.022,0,0,0,4.043,0V202.312A2.022,2.022,0,0,0,217.522,200.29Z" transform="translate(-215.5 -200.29)" fill="#ffd500"/>
          </g>
        </g>
        <g id="Group_57" data-name="Group 57" transform="translate(0)">
          <g id="Group_56" data-name="Group 56">
            <path id="Path_32" data-name="Path 32" d="M114.55,32.55H104.441V26.432a10.074,10.074,0,0,0-3.854-17.906,10.221,10.221,0,0,0-5.8.417,10.125,10.125,0,0,0-8.541-4.7A9.976,9.976,0,0,0,82.434,5,18.091,18.091,0,0,0,54.8,8.2,18.237,18.237,0,0,0,35.5,26.341V50.6a6.123,6.123,0,0,0,6.166,6.065,6.06,6.06,0,0,0,2.123-.383V93.4A10.12,10.12,0,0,0,53.9,103.513H94.333A10.12,10.12,0,0,0,104.441,93.4V87.339H114.55A10.12,10.12,0,0,0,124.659,77.23V42.659A10.12,10.12,0,0,0,114.55,32.55ZM100.4,91.382H94.229a2.012,2.012,0,1,0,0,4.023h5.821a6.093,6.093,0,0,1-5.717,4.064H53.9a6.075,6.075,0,0,1-5.717-4.043H78.06a2.022,2.022,0,1,0,0-4.043H47.833V36.291a14.036,14.036,0,0,0,10.541-7.785,1.5,1.5,0,0,1,1.073.421,12.128,12.128,0,0,0,17.222-.22.667.667,0,0,1,.478-.2c3.147,0,5.207.672,6.121,2a6.786,6.786,0,0,1,.753,3.831v8.18a6.075,6.075,0,0,0,4.043,5.717v32.9a2.022,2.022,0,0,0,4.043,0v-32.9a6.075,6.075,0,0,0,4.043-5.717V28.269a10.728,10.728,0,0,0,4.246,0ZM95.047,23.644a2.022,2.022,0,0,0-2.938,1.8v17.07a2.022,2.022,0,1,1-4.043,0V34.337A10.291,10.291,0,0,0,86.6,28.208c-1.714-2.485-4.893-3.745-9.449-3.745A4.73,4.73,0,0,0,73.762,25.9a8.085,8.085,0,0,1-11.481.144,5.537,5.537,0,0,0-3.907-1.58,4.062,4.062,0,0,0-3.628,2.265,10.02,10.02,0,0,1-8.952,5.679,2.022,2.022,0,0,0-2,2.022V50.506a2.184,2.184,0,0,1-2.123,2.118A2.1,2.1,0,0,1,39.543,50.6V26.341A14.184,14.184,0,0,1,53.778,12.219a14.422,14.422,0,0,1,1.836.117,2.022,2.022,0,0,0,2.02-1.016,14.07,14.07,0,0,1,22.887-2.5,2.021,2.021,0,0,0,2.588.361,5.852,5.852,0,0,1,3.137-.894,6.071,6.071,0,0,1,5.724,4.055A2.022,2.022,0,0,0,95,13.355a6.066,6.066,0,0,1,9.275,3.609C105.429,22.072,100.193,26.262,95.047,23.644Zm9.394,21.037h8.087V75.209h-8.087Zm16.174,32.55A6.072,6.072,0,0,1,114.55,83.3H104.441V79.252H114.55a2.022,2.022,0,0,0,2.022-2.022V42.659a2.022,2.022,0,0,0-2.022-2.022H104.441V36.593H114.55a6.072,6.072,0,0,1,6.065,6.065Z" transform="translate(-35.5)" fill="#ffd500"/>
          </g>
        </g>
      </g>
      <path id="breakfast" d="M98.964,49.734h-.416A7.028,7.028,0,0,0,99.938,44.8c-.411-3.938-4.254-7.872-7.751-10.688l.029-.069a3.049,3.049,0,0,0-.629-3.257,21.722,21.722,0,0,0-2.218-2,1.516,1.516,0,0,0-1.877,2.382A18.487,18.487,0,0,1,89.408,32.9c-.122.3-.277.672-.459,1.1-1.384,3.239-4.982,11.09-9.157,15.734h-5A52.92,52.92,0,0,0,77.247,39.4c.769-4.6,1.362-9.441,1.724-12.707a34.706,34.706,0,0,1,3.29,1.322,1.516,1.516,0,1,0,1.275-2.751,38.495,38.495,0,0,0-4.292-1.677,3.029,3.029,0,0,0-1.732-2.477c-2.15-1.008-6.856-2.7-14.235-2.715a42.676,42.676,0,0,0-6.531.494V14.117A7.185,7.185,0,0,0,49.569,6.94H42.557V1.516A1.516,1.516,0,0,0,41.041,0H19.509a1.516,1.516,0,1,0,0,3.033H39.525V27.155a23.819,23.819,0,0,0-4.554,3.636,3.048,3.048,0,0,0-.627,3.255l.029.07c-3.164,2.545-6.605,6.005-7.54,9.553H8.289a.911.911,0,0,1-.91-.91V3.032h5.56a1.516,1.516,0,0,0,0-3.033H5.863A1.516,1.516,0,0,0,4.346,1.516V42.759a3.947,3.947,0,0,0,3.235,3.875v3.1H4.549a4.549,4.549,0,1,0,0,9.1H5.964v.505a5.161,5.161,0,0,0,5.155,5.155H92.393a5.161,5.161,0,0,0,5.155-5.155v-.505h1.415a4.549,4.549,0,1,0,0-9.1ZM90.937,37.013c3.6,3.022,5.757,5.924,5.985,8.105.175,1.683-.832,3.348-2.772,4.616H83.712a69.449,69.449,0,0,0,7.225-12.721ZM76.225,23.859l-.07.675c-.312,2.984-.971,8.806-1.882,14.271-1.5,9.013-2.66,10.676-2.893,10.929H55.18c-.237-.26-1.392-1.933-2.892-10.929-.911-5.465-1.571-11.288-1.883-14.272l-.012-.117s0-.007,0-.01l-.057-.547c1.547-.726,5.906-2.414,12.941-2.428,7.042.013,11.4,1.7,12.948,2.428ZM42.594,9.973h6.975a4.15,4.15,0,0,1,4.145,4.145V19.5a28.535,28.535,0,0,0-3.033.931V14.926a1.923,1.923,0,0,0-1.921-1.921H42.594Zm5.054,6.065v6.418a3,3,0,0,0-.251.658h-4.84V16.038ZM41.736,29.355a1.306,1.306,0,0,0,.154-.09l.018-.011A32.77,32.77,0,0,1,47.589,26.7c.362,3.266.955,8.112,1.724,12.708a52.982,52.982,0,0,0,2.455,10.33h-5c-4.187-4.652-7.78-12.5-9.16-15.732-.182-.429-.337-.8-.454-1.11a21.382,21.382,0,0,1,4.578-3.536Zm-6.113,7.659a69.19,69.19,0,0,0,7.228,12.72H32.332c-1.825-1.22-2.807-2.827-2.706-4.465,0-.048.006-.1.012-.151.228-2.181,2.384-5.082,5.985-8.1ZM10.614,46.7H26.689a7.429,7.429,0,0,0,1.3,3.033H10.614Zm88.35,9.1H19.434a1.516,1.516,0,1,0,0,3.033H94.516v.505a2.125,2.125,0,0,1-2.123,2.123H11.119A2.125,2.125,0,0,1,9,59.338v-.505h3.942a1.516,1.516,0,1,0,0-3.033H4.549a1.516,1.516,0,0,1,0-3.033H98.964a1.516,1.516,0,1,1,0,3.033Zm0,0" transform="translate(683.447 375.167)" fill="#ffd500"/>
      <g id="dessert" transform="translate(422.847 421.89)">
        <g id="Group_76" data-name="Group 76" transform="translate(503 -197)">
          <path id="Path_39" data-name="Path 39" d="M127.62,54.991h-.067a11.878,11.878,0,0,0,2.63-7.4c-.067-4.081-2.507-8.075-7.252-11.869a10.082,10.082,0,0,0,.371-5.258c-1.38-6.817-8.777-9.539-15.565-11.053A8.788,8.788,0,0,0,103.522,9.16c2.717-5.518,6.341-6.127,7.8-6.127a7.833,7.833,0,0,1,3.7.756,1.514,1.514,0,1,0,1.426-2.671A10.77,10.77,0,0,0,111.32,0a10.5,10.5,0,0,0-7.885,3.868,18.219,18.219,0,0,0-2.81,4.317,8.789,8.789,0,0,0-8.991,4.421A9.838,9.838,0,0,1,90.046,10.3a1.516,1.516,0,0,0-2.111-.671A23.065,23.065,0,0,0,78.1,19.7a20.4,20.4,0,0,0-2.027,8.7c-.128.05-.255.1-.374.15a10.431,10.431,0,0,0-6.545,9.26,16.713,16.713,0,0,0,.266,4.441,8.769,8.769,0,0,0-5.282,12.745h-1.21a1.516,1.516,0,0,0-1.479,1.852L68.96,89.908a4.727,4.727,0,0,0,4.633,3.7h43.358a4.727,4.727,0,0,0,4.633-3.7L129.1,56.844a1.517,1.517,0,0,0-1.478-1.853ZM99.316,11.12a5.762,5.762,0,1,1-5.762,5.762A5.768,5.768,0,0,1,99.316,11.12ZM73.593,90.574a1.71,1.71,0,0,1-1.676-1.338L64.824,58.024h4.908l5.421,31.8a5.628,5.628,0,0,0,.182.747Zm5.42,0c-.275,0-.731-.437-.871-1.256L72.808,58.024h4.936l3.6,31.72a7.178,7.178,0,0,0,.143.83Zm5.694,0a2.912,2.912,0,0,1-.344-1.173L80.8,58.024h4.956l1.8,31.634q.028.488.084.916Zm9.049,0H90.707a7.864,7.864,0,0,1-.13-1.087L88.79,58.024h4.966Zm6.211-1.087a7.864,7.864,0,0,1-.13,1.087H96.788V58.024h4.966Zm5.871,1.087H102.91q.057-.428.084-.916l1.8-31.634h4.956L106.182,89.4A2.908,2.908,0,0,1,105.837,90.574Zm5.694,0h-2.479a7.139,7.139,0,0,0,.143-.83l3.6-31.72h4.936L112.4,89.317C112.263,90.137,111.807,90.574,111.531,90.574Zm7.1-1.338a1.71,1.71,0,0,1-1.676,1.338H115.21a5.623,5.623,0,0,0,.182-.747l5.421-31.8h4.908Zm4.828-34.245H100.2a110.341,110.341,0,0,0,11.987-7.2,1.516,1.516,0,1,0-1.742-2.482,118.686,118.686,0,0,1-17.122,9.679H67.823a6.273,6.273,0,0,1-1.564-5.867c.63-2.257,2.666-3.838,5.733-4.451,2.88-.576,10.5-2.179,18.991-4.622a1.516,1.516,0,1,0-.838-2.915c-7.572,2.177-14.435,3.679-17.789,4.369-.464-2.5-.77-7.9,4.536-10.173,2.048-.878,6.2-1.633,10.591-2.433l1.468-.268a1.516,1.516,0,0,0-.547-2.983l-1.464.267c-2.837.517-5.576,1.016-7.81,1.562.206-3.533,1.7-9.774,9-14.434a14.318,14.318,0,0,0,1.6,1.975c.327.337.606.6.849.813a8.79,8.79,0,0,0,15.724,6.374,40.4,40.4,0,0,1,7.464,2.231A1.4,1.4,0,0,1,114,25.752c-.377,1.18-2.726,4.425-16.37,9.056a1.516,1.516,0,1,0,.975,2.872,76.2,76.2,0,0,0,11.792-4.926c3.713-2.036,5.837-4.025,6.493-6.079.048-.151.087-.3.119-.454a7.81,7.81,0,0,1,3.326,4.846c.558,2.756-.695,5.8-3.723,9.043a1.516,1.516,0,0,0,2.217,2.069,21.911,21.911,0,0,0,2.78-3.621c3.631,3.048,5.5,6.1,5.546,9.084C127.205,50.95,125.02,53.554,123.455,54.991Z" transform="translate(-61.408)" fill="#ffd500"/>
        </g>
      </g>
      <g id="fish" transform="translate(786.694 700.499)">
        <path id="Path_52" data-name="Path 52" d="M420.7,72.988a2.023,2.023,0,1,0,2.86,0A2.026,2.026,0,0,0,420.7,72.988Zm0,0" transform="translate(-335.274 -57.76)" fill="#ffd500"/>
        <path id="Path_53" data-name="Path 53" d="M85.921.025C74.015.485,59.558,6.108,48.052,16.168a22.31,22.31,0,0,0-20.51,5.991,6.07,6.07,0,0,0,0,8.575L34.111,37.3C29.952,49.3,29.158,62.1,29.053,68.631A22.25,22.25,0,0,0,1.091,71.478a2.021,2.021,0,0,0,0,2.858,22.281,22.281,0,0,0,23.447,5.137,22.286,22.286,0,0,0,5.137,23.447,2.021,2.021,0,0,0,2.859,0,22.248,22.248,0,0,0,2.846-27.962c6.534-.1,19.337-.9,31.33-5.056l6.568,6.568a6.07,6.07,0,0,0,8.574,0,22.31,22.31,0,0,0,5.992-20.509c8.855-10.138,15.683-24.47,16.142-38.083.205-6.1-1.249-11.321-3.892-13.963C97.42,1.242,92.122-.213,85.921.025ZM30.4,25.017a18.254,18.254,0,0,1,13.888-5.3A43.993,43.993,0,0,0,35.7,33.175l-5.3-5.3a2.023,2.023,0,0,1,0-2.857ZM5.555,72.907a18.2,18.2,0,0,1,22.516,0,18.205,18.205,0,0,1-22.516,0Zm25.55,25.55a18.205,18.205,0,0,1,0-22.516,18.2,18.2,0,0,1,0,22.516Zm47.89-24.845a2.022,2.022,0,0,1-2.857,0l-5.3-5.3a44,44,0,0,0,13.454-8.587,18.251,18.251,0,0,1-5.3,13.887ZM99.947,17.743A53.054,53.054,0,0,1,95.659,35.9,22.03,22.03,0,0,1,78.6,32.832a2.022,2.022,0,0,0-2.177,3.407,26.385,26.385,0,0,0,17.156,4.126,64.184,64.184,0,0,1-9.453,13.7h0c-.733.813-1.5,1.62-2.274,2.4C70.676,67.636,48.942,70.984,33.091,70.92c-.068-15.837,3.261-37.561,14.462-48.761.782-.783,1.587-1.546,2.4-2.274a64.193,64.193,0,0,1,13.7-9.462A26.107,26.107,0,0,0,65.414,23,2.021,2.021,0,1,0,69.165,21.5,21.676,21.676,0,0,1,68.118,8.347,53.238,53.238,0,0,1,86.076,4.065c5.621-.217,9.655,1.206,11.161,2.71,1.482,1.482,2.9,5.449,2.71,10.968Zm0,0" transform="translate(-0.499 0)" fill="#ffd500"/>
        <path id="Path_54" data-name="Path 54" d="M342.011,134.972a2.023,2.023,0,1,0,2.86,0A2.026,2.026,0,0,0,342.011,134.972Zm0,0" transform="translate(-272.495 -107.213)" fill="#ffd500"/>
      </g>
      <g id="salad" transform="translate(683.879 610.727)">
        <g id="Group_150" data-name="Group 150" transform="translate(0 65.561)">
          <g id="Group_149" data-name="Group 149">
            <path id="Path_115" data-name="Path 115" d="M101.8,324.28H1.742a1.725,1.725,0,0,0-1.725,1.725,36.268,36.268,0,0,0,36.227,36.227H67.3a36.269,36.269,0,0,0,36.227-36.227A1.723,1.723,0,0,0,101.8,324.28Zm-34.5,34.5H36.244A32.819,32.819,0,0,1,3.512,327.73h96.516A32.818,32.818,0,0,1,67.3,358.782Z" transform="translate(-0.017 -324.28)" fill="#ffd500"/>
          </g>
        </g>
        <g id="Group_152" data-name="Group 152" transform="translate(36.226 0)">
          <g id="Group_151" data-name="Group 151">
            <path id="Path_116" data-name="Path 116" d="M230.963,24.17c0-.126,0-.252-.014-.443a7.163,7.163,0,0,0-4.829-6.091l1.953-1.953a9.238,9.238,0,0,0,.762-12.371,9.069,9.069,0,0,0-12.75-1.233c-.219.181-.431.373-.644.585L213.32,4.816a7.2,7.2,0,0,0-6.146-4.8,6.9,6.9,0,0,0-7.261,6.523c-.007.126-.009.252-.009.376V9.555a6.859,6.859,0,0,0-3.443-.928c-.124,0-.252,0-.443.014a7.149,7.149,0,0,0-6.464,7.187v2.346a6.877,6.877,0,0,0-3.443-.921c-.124,0-.25,0-.442.014a7.15,7.15,0,0,0-6.466,7.187V50.036a1.725,1.725,0,0,0,1.725,1.725h29.327a6.895,6.895,0,0,0,5.972-10.347h2.331a7.14,7.14,0,0,0,7.221-6.533,6.858,6.858,0,0,0-.944-3.861,6.9,6.9,0,0,0,6.127-6.85ZM226.5,26.606a3.433,3.433,0,0,1-2.439,1.006h-5.18a1.725,1.725,0,1,0,0,3.45l.19.005a3.443,3.443,0,0,1,3.267,3.562,3.676,3.676,0,0,1-3.75,3.333h-8.332a1.725,1.725,0,0,0,0,3.45,3.45,3.45,0,1,1,0,6.9h-27.6V24.423a3.68,3.68,0,0,1,3.267-3.716l.188-.005a3.453,3.453,0,0,1,3.445,3.445v.012a1.724,1.724,0,0,0,1.723,1.725h0A1.725,1.725,0,0,0,193,24.161V15.8a3.68,3.68,0,0,1,3.267-3.716l.186-.005a3.456,3.456,0,0,1,3.447,3.448v.01a1.724,1.724,0,0,0,1.723,1.725h0a1.725,1.725,0,0,0,1.725-1.723V6.91l.005-.191a3.42,3.42,0,0,1,3.561-3.267A3.694,3.694,0,0,1,210.253,7.2V8.637a1.724,1.724,0,0,0,2.953,1.209l4.68-4.749c.128-.126.259-.245.4-.357a5.61,5.61,0,0,1,7.872.738,5.794,5.794,0,0,1-.505,7.751l-4.537,4.537a1.725,1.725,0,0,0,1.22,2.945h1.523a3.676,3.676,0,0,1,3.654,3.267l.005.19A3.429,3.429,0,0,1,226.5,26.606Z" transform="translate(-179.202 -0.001)" fill="#ffd500"/>
          </g>
        </g>
        <g id="Group_154" data-name="Group 154" transform="translate(26.384 10.859)">
          <g id="Group_153" data-name="Group 153" transform="translate(0 0)">
            <rect id="Rectangle_13" data-name="Rectangle 13" width="68.31" height="3.45" transform="translate(0 48.302) rotate(-45)" fill="#ffd500"/>
          </g>
        </g>
        <g id="Group_156" data-name="Group 156" transform="translate(63.825 13.818)">
          <g id="Group_155" data-name="Group 155">
            <rect id="Rectangle_14" data-name="Rectangle 14" width="3.45" height="8.626" fill="#ffd500"/>
          </g>
        </g>
        <g id="Group_158" data-name="Group 158" transform="translate(53.475 22.443)">
          <g id="Group_157" data-name="Group 157">
            <rect id="Rectangle_15" data-name="Rectangle 15" width="3.45" height="10.351" fill="#ffd500"/>
          </g>
        </g>
        <g id="Group_160" data-name="Group 160" transform="translate(43.124 31.052)">
          <g id="Group_159" data-name="Group 159">
            <rect id="Rectangle_16" data-name="Rectangle 16" width="3.45" height="12.076" fill="#ffd500"/>
          </g>
        </g>
        <g id="Group_162" data-name="Group 162" transform="translate(65.55 20.718)">
          <g id="Group_161" data-name="Group 161">
            <rect id="Rectangle_17" data-name="Rectangle 17" width="8.626" height="3.45" fill="#ffd500"/>
          </g>
        </g>
        <g id="Group_164" data-name="Group 164" transform="translate(55.2 31.052)">
          <g id="Group_163" data-name="Group 163">
            <rect id="Rectangle_18" data-name="Rectangle 18" width="10.351" height="3.45" fill="#ffd500"/>
          </g>
        </g>
        <g id="Group_166" data-name="Group 166" transform="translate(44.849 41.402)">
          <g id="Group_165" data-name="Group 165">
            <rect id="Rectangle_19" data-name="Rectangle 19" width="12.076" height="3.45" fill="#ffd500"/>
          </g>
        </g>
        <g id="Group_168" data-name="Group 168" transform="translate(6.247 3.93)">
          <g id="Group_167" data-name="Group 167">
            <path id="Path_117" data-name="Path 117" d="M56.868,23.491s-.005-.007-.007-.01a7.96,7.96,0,0,0-11.025-2.2c-.114.074-.226.153-.354.248L44.861,22l-.6-.43A7.936,7.936,0,1,0,34.809,34.2l1.453,1.135v.883a8.625,8.625,0,1,0,17.249,0v-.883l1.527-1.192A7.941,7.941,0,0,0,56.868,23.491Zm-3.935,7.92-2.208,1.725a1.726,1.726,0,0,0-.663,1.359v1.725a5.175,5.175,0,1,1-10.35,0V34.5a1.72,1.72,0,0,0-.663-1.359l-2.208-1.725a1.7,1.7,0,0,0-.209-.14,4.485,4.485,0,1,1,5.334-7.125,1.819,1.819,0,0,0,.188.157l1.725,1.242a1.724,1.724,0,0,0,2.051-.026l1.818-1.368a4.461,4.461,0,0,1,5.184,7.259Z" transform="translate(-30.916 -19.441)" fill="#ffd500"/>
          </g>
        </g>
        <g id="Group_170" data-name="Group 170" transform="translate(37.949 1.725)">
          <g id="Group_169" data-name="Group 169">
            <rect id="Rectangle_20" data-name="Rectangle 20" width="3.45" height="3.45" fill="#ffd500"/>
          </g>
        </g>
        <g id="Group_172" data-name="Group 172" transform="translate(48.299 56.928)">
          <g id="Group_171" data-name="Group 171">
            <rect id="Rectangle_21" data-name="Rectangle 21" width="3.45" height="3.45" fill="#ffd500"/>
          </g>
        </g>
        <g id="Group_174" data-name="Group 174" transform="translate(93.156 10.359)">
          <g id="Group_173" data-name="Group 173">
            <path id="Path_118" data-name="Path 118" d="M460.787,51.24v3.45a3.45,3.45,0,1,1,0,6.9v3.45a6.9,6.9,0,1,0,0-13.8Z" transform="translate(-460.787 -51.24)" fill="#ffd500"/>
          </g>
        </g>
        <g id="Group_176" data-name="Group 176" transform="translate(3.447 25.894)">
          <g id="Group_175" data-name="Group 175">
            <rect id="Rectangle_22" data-name="Rectangle 22" width="3.45" height="3.45" fill="#ffd500"/>
          </g>
        </g>
        <g id="Group_178" data-name="Group 178" transform="translate(0 18.993)">
          <g id="Group_177" data-name="Group 177">
            <rect id="Rectangle_23" data-name="Rectangle 23" width="3.45" height="3.45" fill="#ffd500"/>
          </g>
        </g>
        <g id="Group_180" data-name="Group 180" transform="translate(60.379 55.21)">
          <g id="Group_179" data-name="Group 179">
            <path id="Path_119" data-name="Path 119" d="M305.564,273.083a6.907,6.907,0,0,0-6.9,6.9h3.45a3.45,3.45,0,1,1,6.9,0h3.45A6.907,6.907,0,0,0,305.564,273.083Z" transform="translate(-298.664 -273.083)" fill="#ffd500"/>
          </g>
        </g>
        <g id="Group_182" data-name="Group 182" transform="translate(0 34.509)">
          <g id="Group_181" data-name="Group 181">
            <path id="Path_120" data-name="Path 120" d="M20.719,175.865H20.5a6.9,6.9,0,0,0-13.366,0H6.918a6.9,6.9,0,1,0,0,13.8h13.8a6.9,6.9,0,1,0,0-13.8Zm0,10.352H6.918a3.45,3.45,0,1,1,0-6.9H8.643a1.726,1.726,0,0,0,1.725-1.725,3.45,3.45,0,0,1,6.9,0,1.726,1.726,0,0,0,1.725,1.725h1.725a3.45,3.45,0,1,1,0,6.9Z" transform="translate(-0.018 -170.69)" fill="#ffd500"/>
          </g>
        </g>
        <g id="Group_184" data-name="Group 184" transform="translate(8.626 50.035)">
          <g id="Group_183" data-name="Group 183">
            <path id="Path_121" data-name="Path 121" d="M51.307,247.485h-6.9a1.726,1.726,0,0,0-1.725,1.725v6.9a1.725,1.725,0,0,0,1.725,1.725h6.9a1.725,1.725,0,0,0,1.725-1.725v-6.9A1.726,1.726,0,0,0,51.307,247.485Zm-1.725,6.9h-3.45v-3.45h3.45v3.45Z" transform="translate(-42.681 -247.485)" fill="#ffd500"/>
          </g>
        </g>
        <g id="Group_186" data-name="Group 186" transform="translate(86.255 44.859)">
          <g id="Group_185" data-name="Group 185">
            <path id="Path_122" data-name="Path 122" d="M431.831,221.887a5.175,5.175,0,1,0,5.175,5.175A5.182,5.182,0,0,0,431.831,221.887Zm0,6.9a1.725,1.725,0,1,1,1.725-1.725A1.727,1.727,0,0,1,431.831,228.789Z" transform="translate(-426.656 -221.887)" fill="#ffd500"/>
          </g>
        </g>
        <g id="Group_188" data-name="Group 188" transform="translate(79.355 37.959)">
          <g id="Group_187" data-name="Group 187">
            <path id="Path_123" data-name="Path 123" d="M404.6,187.756a12.076,12.076,0,1,0,12.076,12.076A12.09,12.09,0,0,0,404.6,187.756Zm0,20.7a8.626,8.626,0,1,1,8.626-8.626A8.636,8.636,0,0,1,404.6,208.459Z" transform="translate(-392.525 -187.756)" fill="#ffd500"/>
          </g>
        </g>
      </g>
      <g id="meat" transform="translate(644.324 484.796)">
        <g id="Group_88" data-name="Group 88" transform="translate(0 0)">
          <g id="Group_87" data-name="Group 87">
            <path id="Path_80" data-name="Path 80" d="M94.712,70.123c-4.72-3.762-11.382-6.842-19.8-9.154-16.192-4.447-34.452-4.927-41.551-4.927A33.4,33.4,0,0,0,0,89.4v14.134A33.4,33.4,0,0,0,33.359,136.9c8.482,0,14.852-2.657,21.6-5.47,6.974-2.909,14.186-5.917,24.328-5.917a24.258,24.258,0,0,0,24.231-24.231V87.143C103.513,80.5,100.552,74.778,94.712,70.123Zm-1.7,34.562a2.022,2.022,0,0,0,2.858.086,24.285,24.285,0,0,0,3.6-4.278v.784a20.21,20.21,0,0,1-20.187,20.187c-10.952,0-18.543,3.166-25.884,6.229-6.36,2.653-12.367,5.158-20.039,5.158A29.352,29.352,0,0,1,4.106,105.421a33.385,33.385,0,0,0,29.253,17.34c8.482,0,14.852-2.657,21.6-5.47,6.974-2.909,14.186-5.917,24.328-5.917.754,0,1.515-.036,2.263-.106a2.022,2.022,0,1,0-.377-4.026c-.623.058-1.258.088-1.886.088-10.952,0-18.543,3.166-25.884,6.229-6.36,2.653-12.367,5.158-20.039,5.158a29.315,29.315,0,0,1,0-58.631c6.935,0,24.762.466,40.48,4.782,17.007,4.67,25.63,12.165,25.63,22.274A20.262,20.262,0,0,1,93.1,101.828,2.022,2.022,0,0,0,93.009,104.686Z" transform="translate(0 -56.043)" fill="#ffd500"/>
          </g>
        </g>
        <g id="Group_90" data-name="Group 90" transform="translate(87.491 48.772)">
          <g id="Group_89" data-name="Group 89">
            <path id="Path_81" data-name="Path 81" d="M436.606,298.442a2.022,2.022,0,0,0-2.69-.968l-.048.023a2.022,2.022,0,1,0,2.738.945Z" transform="translate(-432.75 -297.281)" fill="#ffd500"/>
          </g>
        </g>
        <g id="Group_92" data-name="Group 92" transform="translate(45.666 8.642)">
          <g id="Group_91" data-name="Group 91">
            <path id="Path_82" data-name="Path 82" d="M228.164,98.8l-.1-.008a2.022,2.022,0,0,0-.322,4.031l.1.008q.082.007.163.007a2.022,2.022,0,0,0,.159-4.037Z" transform="translate(-225.877 -98.789)" fill="#ffd500"/>
          </g>
        </g>
        <g id="Group_94" data-name="Group 94" transform="translate(8.087 8.087)">
          <g id="Group_93" data-name="Group 93">
            <path id="Path_83" data-name="Path 83" d="M126.075,113.609c-2.005-3.963-6.467-7.389-13.262-10.18a86.51,86.51,0,0,0-15.587-4.485c-2.443-.479-5-.907-7.609-1.271a2.022,2.022,0,1,0-.56,4c2.533.354,5.02.77,7.391,1.235,13.887,2.723,23.371,7.288,26.02,12.523a7.836,7.836,0,0,1,.827,3.621,12.114,12.114,0,0,1-12.1,12.1,61.805,61.805,0,0,0-20.028,3.371c-2.9.977-5.713,2.145-8.435,3.275-1.8.747-3.662,1.52-5.51,2.22a32.518,32.518,0,0,1-11.951,2.522,21.228,21.228,0,1,1,0-42.457c2.284,0,4.6.043,6.89.129q.583.022,1.166.047a2.022,2.022,0,0,0,.178-4.04q-.6-.026-1.194-.048c-2.338-.087-4.707-.131-7.041-.131a25.272,25.272,0,1,0,0,50.544A36.278,36.278,0,0,0,78.654,143.8c1.907-.723,3.8-1.507,5.627-2.267,2.659-1.1,5.409-2.245,8.177-3.178a57.827,57.827,0,0,1,18.736-3.159,16.161,16.161,0,0,0,16.144-16.143A11.787,11.787,0,0,0,126.075,113.609Z" transform="translate(-39.998 -96.042)" fill="#ffd500"/>
          </g>
        </g>
        <g id="Group_96" data-name="Group 96" transform="translate(25.045 16.129)">
          <g id="Group_95" data-name="Group 95">
            <path id="Path_84" data-name="Path 84" d="M134.127,135.82c-5.652,0-10.25,4.17-10.25,9.3s4.6,9.3,10.25,9.3,10.25-4.17,10.25-9.3S139.78,135.82,134.127,135.82Zm0,14.547c-3.423,0-6.207-2.356-6.207-5.252s2.784-5.252,6.207-5.252,6.207,2.356,6.207,5.252S137.55,150.367,134.127,150.367Z" transform="translate(-123.877 -135.82)" fill="#ffd500"/>
          </g>
        </g>
      </g>
    </g>
  </g>
</svg>
