<svg xmlns="http://www.w3.org/2000/svg" width="280" height="280" viewBox="0 0 280 280">
  <g id="Group_1340" data-name="Group 1340" transform="translate(-1324 -260)">
    <circle id="Ellipse_4" data-name="Ellipse 4" cx="140" cy="140" r="140" transform="translate(1324 260)" fill="#ff40c3"/>
    <path id="Path_16" data-name="Path 16" d="M126.8,25.947,98.1,1.86l-8.05,9.547,28.7,24.087ZM38.692,11.407,30.7,1.86,2,25.884l8.05,9.547L38.692,11.407ZM67.521,40.174h-9.36V77.615L87.8,95.4l4.68-7.675L67.521,72.935ZM64.4,15.214a56.161,56.161,0,1,0,56.161,56.161A56.166,56.166,0,0,0,64.4,15.214Zm0,99.842a43.681,43.681,0,1,1,43.681-43.681A43.649,43.649,0,0,1,64.4,115.056Z" transform="translate(1399.48 335.747)" fill="#e4ff26"/>
  </g>
</svg>
