<svg xmlns="http://www.w3.org/2000/svg" width="280" height="280" viewBox="0 0 280 280">
  <g id="Group_1401" data-name="Group 1401" transform="translate(-1291 -174)">
    <g id="Group_1400" data-name="Group 1400">
      <path id="Path_337" data-name="Path 337" d="M140,0A140,140,0,1,1,0,140,140,140,0,0,1,140,0Z" transform="translate(1291 174)" fill="#e4ff26"/>
    </g>
    <path id="Path_133" data-name="Path 133" d="M72.041,20.091a9.3,9.3,0,1,0-9.3-9.3A9.323,9.323,0,0,0,72.041,20.091ZM23.239,50.3a23.239,23.239,0,0,0,0,46.478,23.239,23.239,0,0,0,0-46.478Zm0,39.507a16.267,16.267,0,0,1,0-32.535,16.267,16.267,0,0,1,0,32.535ZM50.2,43.33,61.351,32.176l3.718,3.718a32.561,32.561,0,0,0,23.7,9.76v-9.3a23.091,23.091,0,0,1-16.732-6.972L63.21,20.556a11.4,11.4,0,0,0-7.437-2.789c-2.789,0-5.113.93-6.507,2.789L36.253,33.57a9.176,9.176,0,0,0-2.789,6.507c0,2.789.93,5.113,2.789,6.507L51.126,59.6V82.837h9.3V54.02ZM88.309,50.3a23.239,23.239,0,1,0,23.239,23.239A23.013,23.013,0,0,0,88.309,50.3Zm0,39.507a16.267,16.267,0,1,1,16.267-16.267A16.468,16.468,0,0,1,88.309,89.809Z" transform="translate(1375 264.472)" fill="#ff40c3"/>
  </g>
</svg>
