<svg xmlns="http://www.w3.org/2000/svg" width="280" height="280" viewBox="0 0 280 280">
  <g id="Group_1367" data-name="Group 1367" transform="translate(-751 -202)">
    <circle id="Ellipse_3" data-name="Ellipse 3" cx="140" cy="140" r="140" transform="translate(751 202)" fill="#ff40c3"/>
    <g id="Group_1366" data-name="Group 1366">
      <path id="Path_18" data-name="Path 18" d="M95.084,42.634A18.817,18.817,0,1,0,76.268,23.817,18.738,18.738,0,0,0,95.084,42.634Zm-50.178,0A18.817,18.817,0,1,0,26.089,23.817,18.738,18.738,0,0,0,44.906,42.634Zm0,12.545C30.292,55.178,1,62.517,1,77.131V92.812H88.812V77.131C88.812,62.517,59.521,55.178,44.906,55.178Zm50.178,0c-1.819,0-3.889.125-6.084.314,7.276,5.269,12.356,12.356,12.356,21.639V92.812h37.634V77.131C138.991,62.517,109.7,55.178,95.084,55.178Z" transform="translate(820.599 244.361)" fill="#e4ff26"/>
      <path id="Path_131" data-name="Path 131" d="M100.224,12.3a14.285,14.285,0,0,0-12.5-7.216v5.092a9.34,9.34,0,0,1,8.089,14.01L79.457,52.518a9.34,9.34,0,0,1-16.178,0L46.922,24.185a9.34,9.34,0,0,1,8.089-14.01V5.083a14.432,14.432,0,0,0-12.5,21.649L58.869,55.063a14.257,14.257,0,0,0,9.953,6.99V75.717c0,13.348-7.879,24.206-17.564,24.206S33.694,89.065,33.694,75.717V59.448a12.725,12.725,0,1,0-5.093,0V75.717c0,16.155,10.164,29.3,22.657,29.3s22.656-13.143,22.656-29.3V62.053a14.256,14.256,0,0,0,9.952-6.99l16.358-28.332A14.283,14.283,0,0,0,100.224,12.3Z" transform="translate(824.578 351.505)" fill="#e4ff26"/>
    </g>
  </g>
</svg>
