<svg xmlns="http://www.w3.org/2000/svg" width="280" height="280" viewBox="0 0 280 280">
  <g id="Group_1400" data-name="Group 1400" transform="translate(-109 -222)">
    <circle id="Ellipse_11" data-name="Ellipse 11" cx="140" cy="140" r="140" transform="translate(109 222)" fill="#e4ff26"/>
    <path id="Path_6" data-name="Path 6" d="M85.213,1.067,18.321,1A13.36,13.36,0,0,0,5.01,14.378v120.4a13.36,13.36,0,0,0,13.311,13.378H85.213a13.418,13.418,0,0,0,13.378-13.378V14.378A13.36,13.36,0,0,0,85.213,1.067Zm0,120.337H18.321V27.757H85.213ZM57.118,82.741V94.447l21.405-20L57.118,54.513V65.885c-20.8,2.876-29.1,17.124-32.108,31.439C32.435,87.29,42.268,82.741,57.118,82.741Z" transform="translate(197.503 287.689)" fill="#03be98"/>
  </g>
</svg>
